<?xml version="1.0" standalone="no"?>
<!DOCTYPE svg PUBLIC "-//W3C//DTD SVG 20010904//EN"
 "http://www.w3.org/TR/2001/REC-SVG-20010904/DTD/svg10.dtd">
<svg version="1.0" xmlns="http://www.w3.org/2000/svg"
 width="729.000000pt" height="729.000000pt" viewBox="0 0 729.000000 729.000000"
 preserveAspectRatio="xMidYMid meet">
<metadata>
Created by potrace 1.14, written by Peter Selinger 2001-2017
</metadata>
<g transform="translate(0.000000,729.000000) scale(0.100000,-0.100000)"
fill="#000000" stroke="none">
<path d="M6109 6213 c-1 -5 -2 -41 -3 -82 -1 -55 2 -75 13 -79 21 -8 132 -8
164 0 15 3 27 4 27 0 0 -4 105 -6 232 -5 l233 1 2 86 1 86 -334 0 c-184 0
-335 -3 -335 -7z"/>
<path d="M3892 6173 c-10 -10 -25 -19 -33 -21 -8 -2 -21 -9 -29 -16 -8 -7 -22
-16 -30 -20 -8 -3 -33 -17 -55 -31 -22 -14 -47 -28 -55 -32 -8 -4 -17 -9 -20
-12 -7 -8 -41 -29 -70 -43 -14 -7 -27 -15 -30 -19 -3 -3 -17 -12 -32 -20 -42
-22 -142 -82 -148 -88 -3 -3 -26 -17 -52 -31 -27 -13 -48 -28 -48 -33 0 -4 -4
-5 -10 -2 -5 3 -10 2 -10 -2 0 -8 -9 -14 -66 -43 -16 -8 -35 -20 -42 -27 -7
-7 -20 -13 -28 -13 -8 0 -14 -4 -14 -9 0 -5 -11 -12 -25 -15 -14 -4 -25 -11
-25 -16 0 -6 -6 -10 -14 -10 -7 0 -19 -7 -26 -15 -7 -8 -16 -13 -20 -10 -5 3
-10 2 -12 -2 -4 -11 -85 -63 -97 -63 -5 0 -16 -6 -23 -14 -8 -7 -32 -24 -54
-36 -21 -12 -55 -31 -75 -43 -20 -12 -63 -37 -95 -56 -33 -19 -61 -37 -64 -40
-6 -7 -44 -29 -85 -50 -16 -8 -32 -17 -35 -21 -3 -4 -25 -17 -50 -31 -25 -13
-51 -30 -58 -36 -7 -7 -20 -13 -28 -13 -8 0 -14 -4 -14 -10 0 -5 -5 -10 -11
-10 -6 0 -30 -14 -55 -30 -24 -17 -44 -27 -44 -23 0 4 -4 3 -8 -3 -4 -6 -41
-30 -82 -55 -41 -24 -76 -47 -78 -51 -2 -5 -8 -8 -14 -8 -6 0 -35 -16 -64 -35
-29 -19 -55 -35 -59 -35 -3 0 -26 -13 -50 -30 -24 -16 -46 -30 -49 -30 -3 0
-24 -13 -48 -29 -24 -16 -53 -32 -65 -35 -13 -4 -23 -11 -23 -15 0 -4 -18 -16
-40 -26 -22 -10 -40 -21 -40 -25 0 -3 -16 -12 -35 -20 -19 -8 -35 -17 -35 -22
0 -4 -5 -8 -11 -8 -6 0 -24 -10 -41 -21 -37 -27 -108 -67 -130 -75 -10 -4 -18
-10 -18 -15 0 -5 -4 -9 -9 -9 -13 0 -144 -81 -153 -95 -4 -5 -8 -6 -8 -2 0 4
-20 -6 -44 -23 -25 -16 -49 -30 -54 -30 -6 0 -12 -3 -14 -7 -1 -5 -21 -17 -43
-28 -22 -11 -47 -28 -57 -37 -10 -10 -18 -16 -18 -13 0 6 -14 -2 -65 -35 -16
-11 -38 -23 -47 -26 -10 -4 -18 -9 -18 -13 0 -4 -16 -13 -35 -21 l-35 -14 0
-223 c0 -173 3 -223 13 -223 7 0 30 12 51 26 21 15 48 32 60 38 12 6 57 33
101 59 89 54 97 58 171 105 29 17 58 32 64 32 5 0 10 4 10 9 0 5 8 11 17 14
17 6 66 33 88 50 22 18 179 107 187 107 4 0 8 5 8 10 0 6 7 10 15 10 8 0 15 5
15 11 0 5 4 8 9 5 5 -3 14 1 21 9 7 8 19 15 26 15 8 0 14 5 14 10 0 6 7 10 15
10 8 0 15 5 15 11 0 5 4 8 9 5 5 -4 11 -3 13 1 4 10 57 42 81 50 9 3 17 9 17
14 0 5 4 9 10 9 5 0 34 16 64 35 30 19 60 35 66 35 5 0 10 4 10 9 0 5 11 12
25 15 14 4 25 10 25 15 0 5 15 14 33 22 17 7 34 16 37 19 7 8 109 70 116 70 2
0 10 5 17 11 7 5 50 32 97 59 47 27 90 53 96 58 17 15 54 33 54 27 0 -3 10 3
22 15 12 11 28 20 35 20 7 0 13 5 13 10 0 6 18 18 40 27 22 10 40 21 40 25 0
5 6 8 13 8 7 0 23 9 34 19 12 11 24 17 27 14 3 -4 6 -1 6 6 0 7 4 10 9 7 5 -3
14 1 21 9 7 8 19 15 26 15 8 0 14 5 14 10 0 6 7 10 15 10 8 0 15 5 15 12 0 6
3 9 6 5 4 -3 32 11 64 33 32 22 60 36 64 33 3 -4 6 0 6 7 0 7 3 11 6 7 3 -3
15 3 27 14 11 10 27 19 34 19 7 0 13 4 13 8 0 4 19 18 43 30 58 30 97 53 135
80 17 13 32 20 32 15 0 -4 4 -3 8 3 4 5 75 50 157 99 83 49 175 105 205 124
30 20 57 36 60 36 3 0 16 8 30 16 254 161 306 179 390 136 55 -28 93 -50 100
-57 3 -3 26 -17 53 -30 26 -14 47 -28 47 -32 0 -5 7 -8 15 -8 8 0 15 -4 15
-10 0 -6 3 -9 8 -8 8 3 64 -32 74 -47 4 -5 8 -6 8 -2 0 5 13 -1 29 -12 16 -12
34 -21 40 -21 6 0 11 -4 11 -10 0 -5 6 -10 13 -10 7 0 22 -8 33 -18 10 -10 24
-19 29 -21 6 -1 24 -10 40 -20 17 -9 34 -18 39 -18 5 -1 12 -5 15 -10 9 -13
155 -98 163 -96 5 2 8 -1 8 -5 0 -5 19 -19 43 -32 23 -13 45 -28 49 -34 4 -6
8 -8 8 -4 0 6 56 -26 85 -50 6 -4 25 -14 43 -21 17 -7 32 -17 32 -22 0 -5 7
-9 15 -9 8 0 15 -5 15 -12 0 -6 3 -9 6 -6 5 5 48 -19 89 -49 6 -5 32 -19 58
-33 26 -13 47 -28 47 -33 0 -4 4 -6 9 -3 5 3 14 -1 21 -9 7 -8 19 -15 26 -15
8 0 14 -4 14 -8 0 -5 16 -14 35 -22 19 -8 35 -17 35 -20 0 -3 17 -15 38 -26
55 -30 86 -48 92 -54 3 -3 15 -11 28 -17 12 -7 32 -19 45 -25 12 -7 24 -15 27
-18 5 -5 27 -18 75 -44 11 -6 22 -13 25 -16 6 -6 37 -24 93 -54 20 -11 37 -23
37 -26 0 -3 16 -12 35 -20 19 -8 35 -17 35 -22 0 -4 6 -8 14 -8 7 0 19 -7 26
-15 7 -8 16 -12 21 -9 5 3 9 1 9 -3 0 -5 17 -17 38 -28 20 -11 40 -24 44 -30
5 -7 8 -7 8 0 0 7 3 7 8 0 9 -14 279 -175 292 -175 6 0 10 -3 10 -8 0 -4 20
-18 45 -31 25 -13 45 -28 45 -33 0 -5 4 -7 9 -3 5 3 16 -2 24 -10 9 -8 18 -15
21 -15 8 0 111 -65 118 -75 4 -5 8 -6 8 -1 0 5 7 3 15 -4 21 -17 76 -49 98
-56 9 -4 17 -10 17 -14 0 -4 21 -18 48 -31 26 -13 49 -27 50 -31 2 -5 10 -8
18 -8 8 0 14 -4 14 -10 0 -5 6 -10 14 -10 8 0 21 -6 28 -14 8 -7 24 -17 36
-20 12 -4 22 -12 22 -17 0 -5 6 -9 13 -9 7 0 28 -11 47 -25 19 -14 39 -25 44
-25 8 0 11 73 11 222 -1 219 -1 221 -23 231 -12 6 -22 14 -22 19 0 5 -4 6 -10
3 -5 -3 -10 -1 -10 4 0 6 -4 11 -9 11 -5 0 -46 23 -90 50 -44 28 -85 50 -91
50 -5 0 -10 4 -10 9 0 5 -8 11 -17 15 -10 3 -31 15 -48 26 -16 11 -37 23 -45
27 -28 15 -115 67 -120 73 -3 3 -16 11 -30 18 -14 7 -43 24 -65 37 -22 14 -48
28 -57 32 -10 3 -18 9 -18 14 0 5 -7 9 -15 9 -8 0 -15 5 -15 10 0 6 -7 10 -15
10 -9 0 -25 9 -37 20 -12 11 -28 20 -35 20 -7 0 -13 4 -13 8 0 5 -16 14 -35
22 -19 8 -35 18 -35 22 0 5 -4 6 -10 3 -5 -3 -10 -2 -10 4 0 6 -11 13 -25 17
-14 3 -25 10 -25 14 0 4 -18 17 -40 29 -22 11 -40 19 -40 16 0 -2 -12 7 -26
20 -15 14 -30 22 -34 20 -5 -3 -10 -1 -12 3 -3 8 -329 207 -403 246 -22 12
-49 29 -59 39 -11 9 -35 22 -53 29 -18 7 -33 15 -33 19 0 4 -15 14 -32 23 -18
9 -46 26 -63 36 -16 11 -37 23 -45 27 -8 3 -41 23 -72 44 -31 20 -66 40 -77
44 -12 3 -21 11 -21 16 0 6 -4 7 -10 4 -5 -3 -10 -1 -10 4 0 6 -7 11 -15 11
-8 0 -15 4 -15 8 0 5 -16 14 -35 22 -19 8 -35 17 -35 22 0 4 -4 8 -9 8 -6 0
-53 27 -105 60 -53 32 -96 56 -96 52 0 -4 -4 -2 -8 3 -10 15 -107 75 -120 75
-7 0 -12 5 -12 12 0 6 -3 9 -6 5 -3 -3 -15 3 -27 14 -11 10 -27 19 -34 19 -7
0 -13 5 -13 11 0 5 -4 7 -10 4 -5 -3 -10 -2 -10 3 0 5 -8 12 -17 16 -10 3 -27
11 -38 18 -30 20 -98 61 -120 73 -47 26 -70 41 -83 53 -7 6 -20 12 -28 12 -8
0 -14 5 -14 11 0 5 -4 7 -10 4 -5 -3 -10 -2 -10 3 0 5 -12 15 -27 23 -16 7
-46 25 -68 40 -22 14 -47 29 -55 32 -8 4 -28 16 -45 27 -16 11 -37 23 -45 27
-8 4 -38 22 -67 40 -29 18 -55 33 -58 33 -3 0 -13 -8 -23 -17z"/>
<path d="M6120 5710 c-12 -7 -14 -49 -15 -220 0 -117 2 -215 5 -220 7 -10 140
-90 151 -90 5 0 9 -4 9 -10 0 -5 4 -10 9 -10 12 0 164 -92 173 -104 4 -6 8 -7
8 -3 0 4 27 -11 60 -33 33 -22 60 -38 60 -35 0 3 15 -5 33 -19 19 -15 39 -26
45 -26 7 0 12 -4 12 -10 0 -5 5 -10 11 -10 5 0 27 -11 47 -25 40 -28 56 -31
49 -12 -2 6 0 24 4 40 4 15 5 27 1 27 -4 0 -7 52 -7 115 0 63 4 115 8 115 4 0
4 7 -1 17 -6 9 -6 29 -2 45 5 15 5 28 2 28 -4 0 -5 29 -2 65 3 36 3 65 0 65
-3 0 -5 14 -6 30 -1 17 3 30 8 30 5 0 6 5 3 11 -11 16 -12 69 -3 69 5 0 5 8
-1 17 -5 10 -5 26 -1 39 5 12 6 25 3 28 -4 3 -6 23 -5 45 2 32 -2 40 -20 44
-13 4 -26 1 -30 -6 -4 -7 -8 -7 -8 -2 0 12 -70 15 -70 3 0 -5 -5 -6 -11 -2
-17 10 -109 12 -109 2 0 -5 -5 -6 -11 -2 -17 10 -109 12 -109 2 0 -5 -5 -6
-11 -2 -17 10 -109 12 -109 2 0 -5 -5 -6 -11 -2 -17 10 -109 12 -109 2 0 -5
-8 -4 -18 1 -11 6 -24 6 -32 1z"/>
<path d="M1390 2510 c0 -759 3 -1379 8 -1379 4 1 9 0 12 -1 19 -7 41 -7 46 1
3 5 13 5 25 -1 10 -6 19 -7 19 -2 0 4 15 7 33 5 17 -2 38 -4 45 -3 6 0 18 0
25 0 6 1 29 -1 50 -2 21 -2 41 0 44 5 3 4 11 3 18 -3 7 -6 16 -7 19 -2 5 9 64
8 73 -2 3 -3 14 -1 24 5 13 7 19 6 19 -1 0 -7 6 -8 19 0 13 7 22 7 26 0 4 -6
13 -7 24 -1 10 6 23 6 31 1 8 -5 19 -5 25 0 6 5 17 5 25 0 8 -5 21 -5 32 1 12
6 18 6 18 0 0 -7 8 -7 23 -2 13 5 30 5 37 1 8 -5 21 -5 29 -1 9 5 25 5 35 1
11 -3 37 -4 57 0 21 4 43 4 50 -1 7 -4 21 -3 31 2 12 7 18 6 18 -1 0 -7 6 -8
19 0 12 6 22 6 25 1 7 -10 31 -9 42 2 4 3 15 2 25 -4 11 -5 19 -6 19 -1 0 4
15 7 33 5 17 -2 38 -4 45 -3 6 0 18 0 25 0 6 1 29 -1 50 -2 21 -2 41 0 44 5 3
4 11 3 18 -3 7 -6 16 -7 19 -2 5 9 64 8 73 -2 3 -3 14 -1 24 5 13 7 19 6 19
-1 0 -7 6 -8 19 0 13 7 22 7 26 0 4 -6 13 -7 24 -1 10 6 23 6 31 1 8 -5 19 -5
25 0 6 5 17 5 25 0 8 -5 21 -5 32 1 12 6 18 6 18 0 0 -7 8 -7 23 -2 13 5 30 5
37 1 8 -5 21 -5 29 -1 9 5 25 5 35 1 11 -3 37 -4 57 0 21 4 43 4 50 -1 7 -4
21 -3 31 2 12 7 18 6 18 -1 0 -7 6 -8 19 0 12 6 22 6 25 1 7 -10 31 -9 42 2 4
3 15 2 25 -4 11 -5 19 -6 19 -1 0 4 15 7 33 5 17 -2 38 -4 45 -3 6 0 18 0 25
0 6 1 29 -1 50 -2 21 -2 41 0 44 5 3 4 11 3 18 -3 7 -6 16 -7 19 -2 5 9 64 8
73 -2 3 -3 14 -1 24 5 13 7 19 6 19 -1 0 -7 6 -8 19 0 12 6 22 6 25 1 7 -10
31 -9 42 2 4 3 15 2 25 -4 11 -5 19 -6 19 -1 0 4 15 7 33 5 17 -2 38 -4 45 -3
6 0 18 0 25 0 6 1 29 -1 50 -2 21 -2 41 0 44 5 3 4 11 3 18 -3 10 -8 15 -8 20
0 5 8 10 8 20 0 9 -8 15 -8 20 0 4 7 12 7 26 0 10 -6 19 -7 19 -2 0 4 15 7 33
5 17 -2 38 -4 45 -3 6 0 18 0 25 0 6 1 29 -1 50 -2 21 -2 41 0 44 5 3 4 11 3
18 -3 10 -8 15 -8 20 0 5 8 10 8 20 0 9 -8 15 -8 20 0 4 7 12 7 26 0 10 -6 19
-7 19 -2 0 4 15 7 33 5 17 -2 38 -4 45 -3 6 0 18 0 25 0 6 1 29 -1 50 -2 21
-2 41 0 44 5 3 4 11 3 18 -3 10 -8 15 -8 20 0 5 8 10 8 20 0 9 -8 15 -8 20 0
4 7 12 7 26 0 10 -6 19 -7 19 -2 0 4 15 7 33 5 17 -2 38 -4 45 -3 6 0 18 0 25
0 6 1 29 -1 50 -2 21 -2 41 0 44 5 3 4 11 3 18 -3 10 -8 15 -8 20 0 5 8 10 8
20 0 9 -8 15 -8 20 0 4 7 12 7 26 0 10 -6 19 -7 19 -2 0 4 15 7 33 5 17 -2 38
-4 45 -3 6 0 18 0 25 0 6 1 29 -1 50 -2 21 -2 41 0 44 5 3 4 11 3 18 -3 10 -8
15 -8 20 0 5 8 10 8 20 0 9 -8 15 -8 20 0 4 7 12 7 26 0 10 -6 19 -7 19 -2 0
4 15 7 33 5 17 -2 38 -4 45 -3 6 0 18 0 25 0 6 1 29 -1 50 -2 21 -2 41 0 44 5
3 4 11 3 18 -3 10 -8 15 -8 20 0 5 8 10 8 20 0 9 -8 15 -8 20 0 4 7 12 7 26 0
10 -6 19 -7 19 -2 0 4 15 7 33 5 17 -2 38 -4 45 -3 6 0 18 0 25 0 6 1 29 -1
50 -2 21 -2 41 0 44 5 3 4 11 3 18 -3 10 -8 15 -8 20 0 5 8 10 8 20 0 9 -8 15
-8 20 0 4 7 12 7 26 0 10 -6 19 -7 19 -2 0 4 15 7 33 5 17 -2 38 -4 45 -3 28
1 39 0 72 -2 20 -1 41 1 47 5 6 4 14 3 18 -3 4 -6 12 -7 18 -3 6 4 27 7 47 7
l35 1 0 1365 c1 751 -1 1371 -3 1378 -3 9 -519 12 -2533 12 l-2529 0 0 -1380z"/>
</g>
</svg>
